<?xml version="1.0" encoding="UTF-8"?><!DOCTYPE svg PUBLIC "-//W3C//DTD SVG 1.1//EN" "http://www.w3.org/Graphics/SVG/1.1/DTD/svg11.dtd"><svg xmlns="http://www.w3.org/2000/svg" xmlns:xlink="http://www.w3.org/1999/xlink"><defs/><symbol id="download" viewBox="0 0 50 50"><rect fill="none" height="50" width="50"/><path d="M32 35c0 0 8.312 0 9.098 0C45.463 35 49 31.463 49 27.099s-3.537-7.902-7.902-7.902c-.02 0-.038.003-.058.003.061-.494.103-.994.103-1.504 0-6.71-5.439-12.15-12.15-12.15-5.229 0-9.672 3.309-11.386 7.941-1.087-1.089-2.591-1.764-4.251-1.764-3.319 0-6.009 2.69-6.009 6.008 0 .085.01.167.013.251C3.695 18.995 1 22.344 1 26.331 1 31.119 4.881 35 9.67 35c.827 0 8.33 0 8.33 0" fill="none" stroke="#000000" stroke-linecap="round" stroke-linejoin="round" stroke-miterlimit="10" stroke-width="2"/><polyline fill="none" points="30,41 25,46 20,41   " stroke="#000000" stroke-linecap="round" stroke-miterlimit="10" stroke-width="2"/><line fill="none" stroke="#000000" stroke-linecap="round" stroke-miterlimit="10" stroke-width="2" x1="25" x2="25" y1="26" y2="45.668"/></symbol><symbol id="upload" viewBox="0 0 50 50"><rect fill="none" height="50" width="50"/><path d="M32 35c0 0 8.312 0 9.098 0C45.463 35 49 31.463 49 27.099s-3.537-7.902-7.902-7.902c-.02 0-.038.003-.058.003.061-.494.103-.994.103-1.504 0-6.71-5.439-12.15-12.15-12.15-5.229 0-9.672 3.309-11.386 7.941-1.087-1.089-2.591-1.764-4.251-1.764-3.319 0-6.009 2.69-6.009 6.008 0 .085.01.167.013.251C3.695 18.995 1 22.344 1 26.331 1 31.119 4.881 35 9.67 35c.827 0 8.33 0 8.33 0" fill="none" stroke="#000000" stroke-linecap="round" stroke-linejoin="round" stroke-miterlimit="10" stroke-width="2"/><polyline fill="none" points="20,28 25,23 30,28   " stroke="#000000" stroke-linecap="round" stroke-miterlimit="10" stroke-width="2"/><line fill="none" stroke="#000000" stroke-linecap="round" stroke-miterlimit="10" stroke-width="2" x1="25" x2="25" y1="43" y2="23.333"/></symbol></svg>