<?xml version="1.0" encoding="UTF-8"?><!DOCTYPE svg PUBLIC "-//W3C//DTD SVG 1.1//EN" "http://www.w3.org/Graphics/SVG/1.1/DTD/svg11.dtd"><svg xmlns="http://www.w3.org/2000/svg" xmlns:xlink="http://www.w3.org/1999/xlink"><defs/><symbol id="download" viewBox="0 0 50 50"><rect fill="none" height="50" width="50"/><path d="M32 35c0 0 8.312 0 9.098 0C45.463 35 49 31.463 49 27.099s-3.537-7.902-7.902-7.902c-.02 0-.038.003-.058.003.061-.494.103-.994.103-1.504 0-6.71-5.439-12.15-12.15-12.15-5.229 0-9.672 3.309-11.386 7.941-1.087-1.089-2.591-1.764-4.251-1.764-3.319 0-6.009 2.69-6.009 6.008 0 .085.01.167.013.251C3.695 18.995 1 22.344 1 26.331 1 31.119 4.881 35 9.67 35c.827 0 8.33 0 8.33 0" fill="none" stroke="#000000" stroke-linecap="round" stroke-linejoin="round" stroke-miterlimit="10" stroke-width="2"/><polyline fill="none" points="30,41 25,46 20,41   " stroke="#000000" stroke-linecap="round" stroke-miterlimit="10" stroke-width="2"/><line fill="none" stroke="#000000" stroke-linecap="round" stroke-miterlimit="10" stroke-width="2" x1="25" x2="25" y1="26" y2="45.668"/></symbol><symbol id="trash" viewBox="0 0 512 512"><g><path d="M444.852 66.908h-99.339V47.04c0-21.943-17.792-39.736-39.736-39.736h-99.339c-21.944 0-39.736 17.793-39.736 39.736v19.868H67.363v19.868h20.47l19.887 377.489c0 21.944 17.792 39.736 39.736 39.736h218.546c21.944 0 39.736-17.792 39.736-39.736l19.538-377.489h19.577V66.908zM186.57 47.04c0-10.962 8.926-19.868 19.868-19.868h99.339c10.962 0 19.868 8.906 19.868 19.868v19.868H186.57V47.04zM385.908 463.236l-.039.505v.524c0 10.943-8.906 19.868-19.868 19.868H147.455c-10.942 0-19.868-8.925-19.868-19.868v-.524l-.019-.523L107.72 86.776h297.669L385.908 463.236z" fill="#37404D"/><rect fill="#37404D" height="317.885" width="19.868" x="246.173" y="126.511"/><polygon fill="#37404D" points="206.884,443.757 186.551,126.493 166.722,127.753 187.056,445.017  "/><polygon fill="#37404D" points="345.649,127.132 325.82,125.891 305.777,443.776 325.606,445.017  "/></g></symbol><symbol id="upload" viewBox="0 0 50 50"><rect fill="none" height="50" width="50"/><path d="M32 35c0 0 8.312 0 9.098 0C45.463 35 49 31.463 49 27.099s-3.537-7.902-7.902-7.902c-.02 0-.038.003-.058.003.061-.494.103-.994.103-1.504 0-6.71-5.439-12.15-12.15-12.15-5.229 0-9.672 3.309-11.386 7.941-1.087-1.089-2.591-1.764-4.251-1.764-3.319 0-6.009 2.69-6.009 6.008 0 .085.01.167.013.251C3.695 18.995 1 22.344 1 26.331 1 31.119 4.881 35 9.67 35c.827 0 8.33 0 8.33 0" fill="none" stroke="#000000" stroke-linecap="round" stroke-linejoin="round" stroke-miterlimit="10" stroke-width="2"/><polyline fill="none" points="20,28 25,23 30,28   " stroke="#000000" stroke-linecap="round" stroke-miterlimit="10" stroke-width="2"/><line fill="none" stroke="#000000" stroke-linecap="round" stroke-miterlimit="10" stroke-width="2" x1="25" x2="25" y1="43" y2="23.333"/></symbol></svg>